<?xml version="1.0" encoding="utf-8"?>
<!-- Generator: Adobe Illustrator 18.0.0, SVG Export Plug-In . SVG Version: 6.00 Build 0)  -->
<!DOCTYPE svg PUBLIC "-//W3C//DTD SVG 1.1//EN" "http://www.w3.org/Graphics/SVG/1.1/DTD/svg11.dtd">
<svg version="1.1" id="圖層_1" xmlns="http://www.w3.org/2000/svg" xmlns:xlink="http://www.w3.org/1999/xlink" x="0px" y="0px"
	 viewBox="0 188.5 595.3 448.2" enable-background="new 0 188.5 595.3 448.2" xml:space="preserve">
<g>
	<path fill="#1B214E" d="M100.2,251.7l-79.8,8.1v-18.6h78.5l-3.4-31.1h25.9v88.4l-13.8,0.7L100.2,251.7z M38.7,423.3l207.6-11.4
		v77.5l-21.9,2.3l2.6-48.6l-153,6l-12.7,45.3l-22.4,2.9L38.7,423.3z M214.8,513l4.5,17.7c-33,52.6-108,103.7-184.3,105.9
		c-2-10.3,2.5-0.5-1.4-10.1c34.2,0.8,63.6-17.1,93.9-31.9c-11.6-19.8-25.1-41.4-39.7-59.5c-7.3,5.9-16.4,8.1-25.4,12
		c-3.4-9.5-3.4-6-8.1-12.3c32.9-12.7,47.5-46.4,58.4-73.1l34.1,20.6c-3,7.7-7.9,9.8-11.2,16.4L211,514L214.8,513z M56,319.5
		c30.1-3.8,113.3-12.2,122.8-12.8c21.7-1.5,57.3-4.2,60-4.4s5.4,0.5,5.4,4.7c0,4.2-0.3,86.4-0.3,86.4S40,396.2,40,396.2
		c0-23.3,3.9-42.6,4.9-64.8C46.2,320.9,49.2,320.4,56,319.5z M106,527.2c14.1,20.3,32.3,35.7,41.1,56.5c20.3-12.9,34.3-32.3,48-55.3
		l-65.7-17.3L106,527.2z M264.4,239.8l0.2,23.4l-81.2,2.2l1.4,33h-15.2l-14.6-88.4h29.8l-0.7,43.1L264.4,239.8z"/>
	<g>
		<path fill="#1B214E" d="M536.9,302.3c-14.7-26.5-32.8-62.2-45.2-65.3c-12.4-3.1-9.8,13.4-4,22.6c6.4,10,12,20.5,17.8,30.8
			c10.6,18.8,21.2,37.7,31,57c0,0-158.7,11-158.7,11c12.1-19.9,27.4-37.9,42.6-55.5c8.7-10.1,17.5-20.1,26.4-30
			c8.5-9.5,18.1-17.6,22.2-30.2c2.6-8.2,6.3-18.8,1.4-25.3c-2-2.7-24.5-16.8-23.8-18.9c-21.8,60.2-66.4,127.6-76.5,143.2
			c-9.3,16.1-16.5,18-22.6,20c2.2,9.7,13.1,56.5,13.9,64.4c10.9-6.8,20-46.3,179.6-61.9c7,15,12.9,29.2,17.1,41.7
			c0,0,17.6-21.8,17.6-21.8C565.4,355.7,551.6,328.7,536.9,302.3z"/>
		<path fill="#1B214E" d="M369,631.3h21V605h132.6l-2.2,25.2H541c0,0,39.7-160.3,13.4-188.3S359.3,414.3,369,521.7V631.3z"/>
	</g>
</g>
</svg>
